# xmcd CD database file
#
# Track frame offsets:
#	150
#	19712
#	37750
#	54555
#	66005
#	80840
#	94860
#	109747
#	127807
#	146037
#	161137
#	179325
#	194407
#	208875
#	225137
#	243272
#
# Disc length: 3415 seconds
#
# Revision: 2
# Processed by: cddbd v1.5.2PL0 Copyright (c) Steve Scherf et al.
# Submitted via: CDex 1.70beta3
#
DISCID=d50d5510
DTITLE=石原裕次郎 - SUPER BEST 石原裕次郎 全曲集
DYEAR=1989
DGENRE=演歌
TTITLE0=北の旅人
TTITLE1=二人の世界
TTITLE2=夜霧よ今夜も有難う
TTITLE3=俺は待ってるぜ
TTITLE4=赤いハンカチ
TTITLE5=港町涙町別れ町
TTITLE6=夜霧の慕情
TTITLE7=サヨナラ横浜
TTITLE8=わが人生に悔いなし
TTITLE9=俺はお前に弱いんだ
TTITLE10=恋の町札幌
TTITLE11=粋な別れ
TTITLE12=錆びたナイフ
TTITLE13=ブランデーグラス
TTITLE14=泣かせるぜ
TTITLE15=嵐を呼ぶ男
EXTD=YEAR: 1989
EXTT0=
EXTT1=
EXTT2=
EXTT3=
EXTT4=
EXTT5=
EXTT6=
EXTT7=
EXTT8=
EXTT9=
EXTT10=
EXTT11=
EXTT12=
EXTT13=
EXTT14=
EXTT15=
PLAYORDER=
